<!DOCTYPE svg PUBLIC "-//W3C//DTD SVG 1.1//EN" "http://www.w3.org/Graphics/SVG/1.1/DTD/svg11.dtd">
<!-- Uploaded to: SVG Repo, www.svgrepo.com, Transformed by: SVG Repo Mixer Tools -->
<svg version="1.1" id="Layer_1" xmlns="http://www.w3.org/2000/svg" xmlns:xlink="http://www.w3.org/1999/xlink" viewBox="0 0 392.60 392.60" xml:space="preserve" width="100px" height="100px" fill="#000000">
<g id="SVGRepo_bgCarrier" stroke-width="0"/>
<g id="SVGRepo_tracerCarrier" stroke-linecap="round" stroke-linejoin="round" stroke="#CCCCCC" stroke-width="0.785196"/>
<g id="SVGRepo_iconCarrier"> <g> <path style="fill:#FFFFFF;" d="M305.972,359.758V214.95h-56.824l-14.61,15.774c-5.818,6.271-15.451,3.879-18.23-3.685l-5.56-15.386 l-26.182,35.62c-4.719,6.982-17.067,5.883-19.459-4.267l-12.606-60.251l-20.234,27.733c-2.069,2.78-5.301,4.461-8.792,4.461H86.82 v144.873c0,6.012,4.848,10.925,10.925,10.925h197.366C301.123,370.747,305.972,365.834,305.972,359.758z"/> <path style="fill:#FFFFFF;" d="M295.046,93.285H267.83v19.523c0,6.012-4.848,10.925-10.925,10.925H135.822 c-6.012,0-10.925-4.848-10.925-10.925V93.285H97.681c-6.012,0-10.925,4.848-10.925,10.925v89.018h31.095l31.354-43.055 c6.206-8.145,18.101-4.461,19.459,4.202l12.606,60.444l23.79-32.388c4.784-6.723,15.838-5.818,19.006,2.715l6.465,17.713 l5.689-6.206c2.069-2.263,4.913-3.491,8.016-3.491h61.608V104.21C305.972,98.198,301.123,93.285,295.046,93.285z"/> </g> <g> <path style="fill:#56ACE0;" d="M108.606,125.931v67.232h9.244l31.354-43.055c6.206-8.145,18.101-4.461,19.459,4.202l12.606,60.444 l23.79-32.388c4.784-6.723,15.838-5.818,19.006,2.715l6.465,17.713l5.689-6.206c2.069-2.263,4.913-3.491,8.016-3.491h39.822 v-67.168c0-6.012-4.848-10.925-10.925-10.925h-5.624c-1.034,4.913-5.43,8.663-10.667,8.663H135.822 c-5.236,0-9.632-3.685-10.667-8.663h-5.624C113.455,115.071,108.606,119.919,108.606,125.931z"/> <path style="fill:#56ACE0;" d="M119.531,348.897h153.794c6.012,0,10.925-4.848,10.925-10.925V214.949h-34.974l-14.739,15.774 c-5.818,6.271-15.451,3.879-18.23-3.685l-5.56-15.386l-26.182,35.62c-4.719,6.982-17.067,5.883-19.459-4.267l-12.606-60.251 l-20.234,27.733c-2.069,2.78-5.301,4.461-8.792,4.461h-14.804v123.087C108.606,343.984,113.455,348.897,119.531,348.897z"/> </g> <g> <path style="fill:#194F82;" d="M261.172,271.774H131.62c-6.012,0-10.925,4.849-10.925,10.925c0,6.012,4.848,10.925,10.925,10.925 h129.487c6.012,0,10.925-4.848,10.925-10.925S267.184,271.774,261.172,271.774z"/> <path style="fill:#194F82;" d="M261.172,315.41H131.62c-6.012,0-10.925,4.848-10.925,10.925c0,6.012,4.848,10.925,10.925,10.925 h129.487c6.012,0,10.925-4.848,10.925-10.925S267.184,315.41,261.172,315.41z"/> <path style="fill:#194F82;" d="M295.046,71.499H267.83V54.562c0-6.012-4.848-10.925-10.925-10.925h-22.95V27.281 C233.956,12.218,221.737,0,206.675,0h-20.687c-15.063,0-27.281,12.218-27.281,27.281v16.356h-22.949 c-6.012,0-10.925,4.848-10.925,10.925v16.937H97.616c-18.101,0-32.776,14.675-32.776,32.776v255.547 c0,18.101,14.675,32.776,32.776,32.776h197.366c18.101,0,32.776-14.675,32.776-32.776V104.21 C327.758,86.174,313.083,71.499,295.046,71.499z M180.622,27.281c0-3.038,2.457-5.495,5.495-5.495h20.687 c3.038,0,5.495,2.457,5.495,5.495v16.356h-31.612V27.281H180.622z M146.683,65.422h99.297v36.525h-99.297V65.422z M97.745,93.285 h27.216v19.523c0,6.012,4.848,10.925,10.925,10.925h121.147c6.012,0,10.925-4.848,10.925-10.925V93.285h27.216 c6.012,0,10.925,4.848,10.925,10.925v89.018h-61.608c-3.038,0-5.947,1.228-8.016,3.491l-5.689,6.206l-6.465-17.713 c-3.232-8.469-14.222-9.438-19.006-2.715l-23.79,32.388l-12.606-60.444c-1.422-8.663-13.317-12.283-19.459-4.202l-31.354,42.99 H87.014V104.21C86.82,98.198,91.669,93.285,97.745,93.285z M295.046,370.747H97.745c-6.012,0-10.925-4.849-10.925-10.925V214.949 h36.655c3.491,0,6.723-1.681,8.792-4.461l20.17-27.669l12.606,60.251c2.392,10.02,14.739,11.184,19.459,4.267l26.182-35.62 l5.56,15.386c2.78,7.499,12.412,9.891,18.23,3.685l14.61-15.774h56.824v144.873C305.972,365.834,301.123,370.747,295.046,370.747z"/> </g> <g> <rect x="146.683" y="65.422" style="fill:#FFC10D;" width="99.297" height="36.461"/> <path style="fill:#FFC10D;" d="M212.17,27.281c0-3.038-2.457-5.495-5.495-5.495h-20.687c-3.038,0-5.495,2.457-5.495,5.495v16.356 h31.612V27.281H212.17z"/> </g> </g>
</svg>